<svg width="696" height="83" viewBox="0 0 696 83" fill="none" xmlns="http://www.w3.org/2000/svg">
<g clip-path="url(#clip0_908_368)">
<path d="M577.943 11.2764H572.583C572.575 11.2764 572.569 11.2827 572.569 11.2905V71.3093C572.569 71.3171 572.575 71.3235 572.583 71.3235H577.943C577.951 71.3235 577.957 71.3171 577.957 71.3093V11.2905C577.957 11.2827 577.951 11.2764 577.943 11.2764Z" fill="#0718C4"/>
<g clip-path="url(#clip1_908_368)">
<g clip-path="url(#clip2_908_368)">
<g clip-path="url(#clip3_908_368)">
<g clip-path="url(#clip4_908_368)">
<path d="M76.8864 12.21C77.4614 12.21 77.8534 12.3668 78.0625 12.6804C78.2716 12.9941 78.2978 13.4122 78.141 13.935L62.0669 69.0571C61.8056 69.9457 61.1783 70.39 60.1851 70.39H54.226C53.1282 70.39 52.4748 69.9719 52.2657 69.1355L40.5042 27.8919C40.452 27.526 40.3631 27.3431 40.2376 27.3431C40.1017 27.3431 39.9554 27.5521 39.7986 27.9703L27.9587 69.0571C27.7496 69.9457 27.1223 70.39 26.0768 70.39H19.9609C18.9154 70.39 18.262 69.9719 18.0006 69.1355L2.08343 13.935C1.97889 13.4122 2.03116 12.9941 2.24025 12.6804C2.44934 12.3668 2.84139 12.21 3.4164 12.21H9.92441C10.4471 12.21 10.8131 12.2884 11.0222 12.4452C11.2312 12.602 11.3881 12.8634 11.4926 13.2293L23.4893 55.8058C23.6461 56.3286 23.8029 56.5899 23.9598 56.5899C24.1166 56.5899 24.2734 56.3547 24.4302 55.8842L36.5053 13.2293C36.5576 12.9156 36.704 12.6647 36.9444 12.4766C37.1744 12.2988 37.5769 12.21 38.1519 12.21H43.7975C44.3202 12.21 44.7018 12.2884 44.9422 12.4452C45.1722 12.602 45.3134 12.8634 45.3656 13.2293L57.4408 56.1195C57.5976 56.5376 57.7701 56.7467 57.9583 56.7467C58.136 56.7467 58.2771 56.5376 58.3817 56.1195L70.3784 13.2293C70.4829 12.8634 70.6554 12.602 70.8959 12.4452C71.1259 12.2884 71.4761 12.21 71.9466 12.21H76.8864ZM88.4126 13.3861C88.4126 12.602 88.7785 12.21 89.5104 12.21H126.049C126.677 12.21 126.99 12.5497 126.99 13.2293L126.912 18.1691C126.912 18.9532 126.52 19.3453 125.736 19.3453H99.0764C98.2923 19.3453 97.9002 19.685 97.9002 20.3646V36.517C97.9002 37.1966 98.24 37.5363 98.9196 37.5363H118.052C118.731 37.5363 119.071 37.85 119.071 38.4772V43.7307C119.071 43.9921 119.003 44.2012 118.867 44.358C118.742 44.5148 118.47 44.5932 118.052 44.5932H98.8411C98.2139 44.5932 97.9002 44.8807 97.9002 45.4557V62.3922C97.9002 62.9673 98.1616 63.2548 98.6843 63.2548H126.833C127.565 63.2548 127.931 63.5684 127.931 64.1957V69.3707C127.931 69.6844 127.853 69.93 127.696 70.1078C127.539 70.296 127.252 70.39 126.833 70.39H89.7456C88.857 70.39 88.4126 69.9719 88.4126 69.1355V13.3861ZM139.457 70.39C139.092 70.39 138.804 70.2855 138.595 70.0764C138.386 69.8673 138.281 69.606 138.281 69.2923V13.5429C138.281 13.1247 138.396 12.7954 138.626 12.555C138.867 12.325 139.17 12.21 139.536 12.21H158.589C165.803 12.21 171.344 13.4907 175.212 16.052C179.081 18.6134 181.015 22.3771 181.015 27.3431C181.015 30.4272 180.204 33.0147 178.584 35.1056C176.963 37.1966 174.35 38.9216 170.743 40.2807C170.534 40.3329 170.429 40.448 170.429 40.6257C170.429 40.8139 170.534 40.9341 170.743 40.9864C174.611 42.0318 177.523 43.6628 179.478 45.8791C181.443 48.106 182.426 51.0751 182.426 54.7865C182.426 60.0661 180.45 63.9866 176.498 66.548C172.557 69.1094 166.822 70.39 159.295 70.39H139.457ZM148.631 63.7252H158.903C163.503 63.7252 166.927 62.9254 169.175 61.3259C171.422 59.7368 172.546 57.374 172.546 54.2376C172.546 51.9376 171.982 50.0662 170.853 48.6235C169.734 47.1912 168.208 46.1353 166.274 45.4557C164.339 44.7762 162.144 44.4364 159.687 44.4364H149.023C148.187 44.4364 147.769 44.7762 147.769 45.4557V62.5491C147.769 63.3332 148.056 63.7252 148.631 63.7252ZM148.631 37.5363H159.687C161.151 37.5363 162.573 37.39 163.953 37.0972C165.343 36.815 166.613 36.3184 167.763 35.6075C168.913 34.907 169.828 33.9661 170.508 32.7847C171.187 31.6138 171.527 30.1658 171.527 28.4408C171.527 25.2521 170.361 22.858 168.03 21.2585C165.709 19.6693 162.614 18.8748 158.746 18.8748H148.945C148.161 18.8748 147.769 19.2146 147.769 19.8941V36.4386C147.769 37.1704 148.056 37.5363 148.631 37.5363Z" fill="#0718C4"/>
<path d="M232.687 68.7434C232.844 69.1616 232.828 69.538 232.64 69.8725C232.462 70.2175 232.164 70.39 231.746 70.39H224.14C223.513 70.39 223.042 70.0241 222.729 69.2923L213.163 45.4557C212.901 44.8284 212.248 44.5148 211.202 44.5148H199.755C199.389 44.5148 199.143 44.6089 199.018 44.7971C198.882 44.9748 198.814 45.1682 198.814 45.3773V68.9787C198.814 69.9196 198.317 70.39 197.324 70.39H190.659C190.136 70.39 189.786 70.2855 189.608 70.0764C189.42 69.8673 189.326 69.5537 189.326 69.1355V13.3861C189.326 12.602 189.692 12.2099 190.424 12.2099H213.084C219.514 12.2099 224.522 13.5168 228.108 16.1304C231.683 18.7441 233.471 22.56 233.471 27.5783C233.471 30.4533 232.922 32.9206 231.824 34.9802C230.726 37.0502 229.331 38.7229 227.637 39.9984C225.933 41.2843 224.114 42.2148 222.18 42.7898C221.814 42.9466 221.709 43.2602 221.866 43.7307L232.687 68.7434ZM211.202 37.85C215.28 37.85 218.38 37.0763 220.502 35.529C222.614 33.9922 223.67 31.5772 223.67 28.284C223.67 25.1476 222.703 22.7953 220.768 21.2271C218.834 19.6589 216.09 18.8748 212.535 18.8748H200.068C199.232 18.8748 198.814 19.1884 198.814 19.8157V36.7522C198.814 37.484 199.101 37.85 199.676 37.85H211.202ZM244.527 13.3861C244.527 12.602 244.893 12.2099 245.624 12.2099H282.163C282.791 12.2099 283.104 12.5497 283.104 13.2293L283.026 18.1691C283.026 18.9532 282.634 19.3452 281.85 19.3452H255.19C254.406 19.3452 254.014 19.685 254.014 20.3646V36.517C254.014 37.1965 254.354 37.5363 255.034 37.5363H274.166C274.845 37.5363 275.185 37.85 275.185 38.4772V43.7307C275.185 43.9921 275.117 44.2011 274.981 44.358C274.856 44.5148 274.584 44.5932 274.166 44.5932H254.955C254.328 44.5932 254.014 44.8807 254.014 45.4557V62.3922C254.014 62.9672 254.276 63.2547 254.798 63.2547H282.947C283.679 63.2547 284.045 63.5684 284.045 64.1957V69.3707C284.045 69.6843 283.967 69.93 283.81 70.1078C283.653 70.2959 283.366 70.39 282.947 70.39H245.86C244.971 70.39 244.527 69.9718 244.527 69.1355V13.3861ZM326.543 23.9714C325.174 22.4555 323.501 21.1487 321.525 20.0509C319.539 18.9532 316.951 18.4043 313.762 18.4043C310.051 18.4043 307.16 19.1727 305.09 20.7096C303.031 22.2569 302.001 24.3896 302.001 27.1078C302.001 27.8396 302.179 28.7021 302.534 29.6953C302.911 30.6885 303.658 31.6399 304.777 32.5494C305.895 33.4695 307.532 34.3215 309.685 35.1056L321.447 38.7909C326.204 40.2545 329.612 42.3298 331.671 45.0166C333.741 47.7139 334.776 50.866 334.776 54.4728C334.776 57.9229 333.898 60.9024 332.142 63.4116C330.396 65.9207 327.913 67.8391 324.693 69.1668C321.483 70.505 317.657 71.1741 313.214 71.1741C309.92 71.1741 306.873 70.7925 304.071 70.0293C301.28 69.2766 298.797 68.1527 296.622 66.6577C294.458 65.1732 292.639 63.3593 291.165 61.2161C290.966 60.8502 290.893 60.5104 290.945 60.1968C290.997 59.8831 291.233 59.5695 291.651 59.2558L295.477 56.5899C296.063 56.224 296.512 56.0672 296.826 56.1194C297.14 56.1717 297.427 56.3547 297.688 56.6683C298.995 58.3411 300.313 59.7524 301.64 60.9024C302.979 62.0525 304.521 62.9045 306.266 63.4586C308.023 64.0022 310.156 64.2741 312.665 64.2741C316.585 64.2741 319.732 63.5788 322.105 62.1884C324.478 60.8083 325.665 58.6024 325.665 55.5706C325.665 54.3683 325.435 53.281 324.975 52.3087C324.505 51.3469 323.689 50.4583 322.529 49.6428C321.389 48.8378 319.722 48.0432 317.526 47.2591L305.671 43.417C302.701 42.4239 300.286 41.1432 298.426 39.575C296.575 38.0068 295.2 36.2295 294.301 34.2431C293.423 32.2567 292.984 30.2181 292.984 28.1271C292.984 24.7816 293.846 21.8543 295.571 19.3452C297.296 16.8361 299.701 14.8916 302.785 13.5115C305.869 12.1211 309.476 11.4258 313.606 11.4258C316.376 11.4258 318.922 11.7499 321.243 12.3981C323.574 13.0568 325.702 13.9715 327.625 15.1425C329.57 16.3238 331.222 17.7248 332.581 19.3452C332.79 19.6066 332.931 19.868 333.004 20.1293C333.077 20.3907 332.936 20.6782 332.581 20.9918L328.111 24.4419C327.787 24.651 327.536 24.7137 327.359 24.6301C327.181 24.5569 326.909 24.3373 326.543 23.9714ZM368.712 71.1741C363.432 71.1741 358.885 70.0084 355.069 67.6771C351.253 65.3561 348.326 61.9845 346.287 57.5622C344.248 53.1503 343.229 47.808 343.229 41.5352C343.229 35.2102 344.274 29.7999 346.365 25.3044C348.456 20.8089 351.41 17.3693 355.226 14.9856C359.042 12.6124 363.563 11.4258 368.79 11.4258C373.966 11.4258 378.451 12.6124 382.246 14.9856C386.03 17.3693 388.957 20.7932 391.027 25.2573C393.087 29.7319 394.117 35.1317 394.117 41.4568C394.117 47.7296 393.098 53.0771 391.059 57.4995C389.02 61.9113 386.093 65.2934 382.277 67.6457C378.461 69.998 373.939 71.1741 368.712 71.1741ZM368.79 64.1957C374.018 64.1957 377.902 62.3765 380.442 58.7383C382.972 55.1106 384.237 49.3762 384.237 41.5352C384.237 33.5897 382.946 27.7351 380.364 23.9714C377.771 20.2077 373.913 18.3259 368.79 18.3259C363.563 18.3259 359.643 20.2182 357.029 24.0028C354.415 27.7978 353.109 33.642 353.109 41.5352C353.109 49.3239 354.415 55.0478 357.029 58.707C359.643 62.3661 363.563 64.1957 368.79 64.1957ZM448.376 50.3171C448.376 55.2308 447.54 59.2297 445.867 62.3138C444.195 65.3979 441.738 67.6457 438.497 69.0571C435.256 70.4684 431.309 71.1741 426.657 71.1741C421.534 71.1741 417.378 70.3534 414.19 68.7121C411.001 67.0602 408.659 64.5877 407.164 61.2945C405.68 58.0013 404.937 53.8978 404.937 48.9841V13.4645C404.937 12.6281 405.277 12.2099 405.957 12.2099H413.406C414.085 12.2099 414.425 12.602 414.425 13.3861V50.6308C414.425 55.2308 415.523 58.6286 417.718 60.824C419.914 63.0195 423.128 64.1172 427.363 64.1172C430.133 64.1172 432.501 63.6468 434.467 62.7059C436.422 61.7649 437.922 60.2752 438.967 58.2365C440.013 56.1979 440.535 53.5842 440.535 50.3955V13.3861C440.535 12.602 440.849 12.2099 441.476 12.2099H447.436C448.063 12.2099 448.376 12.5758 448.376 13.3077V50.3171ZM484.367 11.4258C487.137 11.4258 489.761 11.8597 492.239 12.7274C494.727 13.5847 496.964 14.7713 498.951 16.2872C500.937 17.8032 502.568 19.5386 503.844 21.4937C505.129 23.4591 505.955 25.5919 506.321 27.8919C506.426 28.4669 506.426 28.8433 506.321 29.021C506.217 29.2092 505.982 29.3294 505.616 29.3817L498.324 29.8521C498.01 29.9044 497.801 29.8521 497.696 29.6953C497.592 29.5385 497.487 29.3033 497.383 28.9896C496.703 25.8532 495.266 23.2919 493.07 21.3055C490.875 19.3191 488.078 18.3259 484.68 18.3259C479.714 18.3259 475.883 20.2077 473.185 23.9714C470.498 27.7351 469.155 33.4851 469.155 41.2216C469.155 48.8535 470.472 54.5512 473.107 58.3149C475.752 62.0786 479.714 63.9604 484.994 63.9604C488.496 63.9604 491.434 63.1084 493.807 61.4043C496.191 59.7106 498.141 56.9297 499.656 53.0615C499.813 52.6955 500.205 52.5649 500.833 52.6694L506.4 54.0024C506.557 54.0546 506.713 54.1592 506.87 54.316C507.027 54.4728 507.053 54.8126 506.949 55.3353C506.583 56.6944 505.981 58.1058 505.145 59.5695C504.309 61.0331 503.263 62.4602 502.009 63.8507C500.754 65.2307 499.264 66.4695 497.539 67.5673C495.814 68.665 493.865 69.538 491.69 70.1862C489.526 70.8448 487.163 71.1741 484.602 71.1741C479.322 71.1741 474.785 69.9457 470.99 67.4889C467.205 65.032 464.294 61.5559 462.255 57.0604C460.216 52.5649 459.197 47.2591 459.197 41.1432C459.197 34.9749 460.216 29.6692 462.255 25.226C464.294 20.7827 467.195 17.3693 470.958 14.9856C474.722 12.6124 479.191 11.4258 484.367 11.4258ZM517.377 13.3861C517.377 12.602 517.738 12.2099 518.459 12.2099H555.014C555.641 12.2099 555.955 12.5497 555.955 13.2293L555.861 18.1691C555.861 18.9532 555.469 19.3452 554.684 19.3452H528.025C527.241 19.3452 526.849 19.685 526.849 20.3646V36.517C526.849 37.1965 527.189 37.5363 527.868 37.5363H547.016C547.685 37.5363 548.02 37.85 548.02 38.4772V43.7307C548.02 43.9921 547.957 44.2011 547.831 44.358C547.696 44.5148 547.424 44.5932 547.016 44.5932H527.806C527.168 44.5932 526.849 44.8807 526.849 45.4557V62.3922C526.849 62.9672 527.11 63.2547 527.633 63.2547H555.798C556.519 63.2547 556.88 63.5684 556.88 64.1957V69.3707C556.88 69.6843 556.802 69.93 556.645 70.1078C556.498 70.2959 556.216 70.39 555.798 70.39H518.71C517.821 70.39 517.377 69.9718 517.377 69.1355V13.3861Z" fill="#77D4FC"/>
</g>
</g>
</g>
</g>
<g clip-path="url(#clip5_908_368)">
<g clip-path="url(#clip6_908_368)">
<path d="M690.048 75.9803H685.644V73.7783H690.048C691.869 73.7783 693.351 72.2965 693.351 70.4755V5.51872C693.351 3.69773 691.869 2.21584 690.048 2.21584H597.567C595.746 2.21584 594.264 3.69773 594.264 5.51872V70.4755C594.264 72.2965 595.746 73.7783 597.567 73.7783H648.211V75.9803H597.567C594.532 75.9803 592.062 73.5108 592.062 70.4755V5.51872C592.062 2.48337 594.532 0.013916 597.567 0.013916H690.048C693.083 0.013916 695.553 2.48337 695.553 5.51872V70.4755C695.553 73.5108 693.083 75.9803 690.048 75.9803Z" fill="#24A8DF"/>
<path d="M693.351 14.3264H593.163V16.5283H693.351V14.3264Z" fill="#24A8DF"/>
<path d="M602.521 9.92251C601.611 9.92251 600.87 9.18157 600.87 8.27107C600.87 7.36058 601.611 6.61963 602.521 6.61963C603.432 6.61963 604.173 7.36058 604.173 8.27107C604.173 9.18157 603.432 9.92251 602.521 9.92251ZM602.521 7.72059C602.218 7.72059 601.971 7.96721 601.971 8.27107C601.971 8.57494 602.218 8.82155 602.521 8.82155C602.825 8.82155 603.072 8.57494 603.072 8.27107C603.072 7.96721 602.825 7.72059 602.521 7.72059Z" fill="#24A8DF"/>
<path d="M610.228 9.92251C609.318 9.92251 608.577 9.18157 608.577 8.27107C608.577 7.36058 609.318 6.61963 610.228 6.61963C611.139 6.61963 611.88 7.36058 611.88 8.27107C611.88 9.18157 611.139 9.92251 610.228 9.92251ZM610.228 7.72059C609.924 7.72059 609.678 7.96721 609.678 8.27107C609.678 8.57494 609.924 8.82155 610.228 8.82155C610.532 8.82155 610.779 8.57494 610.779 8.27107C610.779 7.96721 610.532 7.72059 610.228 7.72059Z" fill="#24A8DF"/>
<path d="M617.935 9.92251C617.024 9.92251 616.283 9.18157 616.283 8.27107C616.283 7.36058 617.024 6.61963 617.935 6.61963C618.845 6.61963 619.586 7.36058 619.586 8.27107C619.586 9.18157 618.845 9.92251 617.935 9.92251ZM617.935 7.72059C617.631 7.72059 617.384 7.96721 617.384 8.27107C617.384 8.57494 617.631 8.82155 617.935 8.82155C618.239 8.82155 618.485 8.57494 618.485 8.27107C618.485 7.96721 618.239 7.72059 617.935 7.72059Z" fill="#24A8DF"/>
<path d="M675.735 82.586H658.12C655.085 82.586 652.615 80.1165 652.615 77.0812V38.5475C652.615 35.5122 655.085 33.0427 658.12 33.0427H675.735C678.771 33.0427 681.24 35.5122 681.24 38.5475V77.0812C681.24 80.1165 678.771 82.586 675.735 82.586ZM658.12 35.2446C656.299 35.2446 654.817 36.7265 654.817 38.5475V77.0812C654.817 78.9022 656.299 80.3841 658.12 80.3841H675.735C677.556 80.3841 679.038 78.9022 679.038 77.0812V38.5475C679.038 36.7265 677.556 35.2446 675.735 35.2446H658.12Z" fill="#24A8DF"/>
<path d="M680.139 44.0523H653.716C653.108 44.0523 652.615 43.5591 652.615 42.9514C652.615 42.3436 653.108 41.8504 653.716 41.8504H680.139C680.747 41.8504 681.24 42.3436 681.24 42.9514C681.24 43.5591 680.747 44.0523 680.139 44.0523Z" fill="#24A8DF"/>
<path d="M680.139 73.7783H653.716C653.108 73.7783 652.615 73.285 652.615 72.6773C652.615 72.0696 653.108 71.5764 653.716 71.5764H680.139C680.747 71.5764 681.24 72.0696 681.24 72.6773C681.24 73.285 680.747 73.7783 680.139 73.7783Z" fill="#24A8DF"/>
</g>
</g>
</g>
<defs>
<clipPath id="clip0_908_368">
<rect width="695.105" height="82.5721" fill="white" transform="translate(0.447327 0.013916)"/>
</clipPath>
<clipPath id="clip1_908_368">
<rect width="558.016" height="59.7483" fill="white" transform="translate(0.447327 11.4258)"/>
</clipPath>
<clipPath id="clip2_908_368">
<rect width="558.016" height="59.7483" fill="white" transform="translate(0.447327 11.4258)"/>
</clipPath>
<clipPath id="clip3_908_368">
<rect width="558.016" height="59.7483" fill="white" transform="translate(0.447327 11.4258)"/>
</clipPath>
<clipPath id="clip4_908_368">
<rect width="558.016" height="59.7483" fill="white" transform="translate(0.447327 11.4258)"/>
</clipPath>
<clipPath id="clip5_908_368">
<rect width="103.49" height="82.5721" fill="white" transform="translate(592.062 0.013916)"/>
</clipPath>
<clipPath id="clip6_908_368">
<rect width="103.49" height="82.5721" fill="white" transform="translate(592.062 0.013916)"/>
</clipPath>
</defs>
</svg>
